PathFileType	4	(X/Y/Z)	C:\Users\WrightLab\Desktop\Jo\P1_boxCal26.trc
DataRate	CameraRate	NumFrames	NumMarkers	Units	OrigDataRate	OrigDataStartFrame	OrigNumFrames
100.00	100.00	       8	19	mm	100.00	499	       664
Frame#	Time	Headset_Front			Headset_Back			Headset_Left			Headset_Right			Left_Shoulder			Right_Shoulder			Sternum			C7			Left Elbow			Right Elbow			Left Wrist			Right Wrist			Left ASIS			Right ASIS			S2			Left Knee			Right Knee			Left Ankle			Right Ankle			
		X1	Y1	Z1	X2	Y2	Z2	X3	Y3	Z3	X4	Y4	Z4	X5	Y5	Z5	X6	Y6	Z6	X7	Y7	Z7	X8	Y8	Z8	X9	Y9	Z9	X10	Y10	Z10	X11	Y11	Z11	X12	Y12	Z12	X13	Y13	Z13	X14	Y14	Z14	X15	Y15	Z15	X16	Y16	Z16	X17	Y17	Z17	X18	Y18	Z18	X19	Y19	Z19	

499	4.980	-621.92010	1363.52942	-594.35144	-683.06000	1506.43518	-328.13504	-764.56805	1433.28479	-460.01318	-540.61548	1411.51697	-475.88281	-861.53217	1267.85437	-347.01636	-482.65442	1257.55627	-370.52689	-663.68854	1157.51697	-486.27084	-677.17889	1273.31580	-248.27452	-943.91815	951.95532	-317.32373	-392.78305	995.80737	-293.80197	-1002.84784	785.04962	-462.27005	-311.81403	767.40637	-337.82761	-767.35510	876.42700	-491.24603	-566.37897	873.24133	-486.26895	-663.25134	893.01892	-169.62326	-896.61859	472.66776	-440.01315	-502.21515	434.43069	-369.37894	-851.07391	171.94710	-231.85722				
500	4.990	-623.00665	1363.55920	-602.84930	-682.91089	1505.29553	-339.36935	-765.41388	1433.21118	-469.11694	-541.62402	1412.08728	-485.39557	-861.72449	1267.52161	-355.04477	-483.05774	1257.84644	-380.07364	-664.49811	1157.50208	-495.60809	-677.19104	1273.58618	-255.05687	-943.83972	952.28595	-322.74280	-392.30463	996.69867	-302.59167	-1004.00726	783.17578	-465.00598	-311.96643	767.62048	-348.95551	-768.36414	876.36145	-498.78729	-567.78448	873.01080	-493.19446	-663.56219	892.87402	-178.66185	-896.15771	475.34885	-452.72144	-503.33270	433.68176	-374.17273	-856.72229	163.83380	-259.41266				
501	5.000	-624.05859	1363.38428	-611.83423	-683.84473	1504.84900	-347.51733	-766.26343	1432.83411	-477.47049	-542.89880	1411.63794	-494.02014	-862.02527	1266.96826	-362.90942	-483.04684	1257.73425	-389.35080	-664.83832	1157.01428	-503.46378	-677.34094	1273.28699	-263.39722	-944.34058	952.04004	-328.78564	-392.86270	996.46649	-310.67093	-1004.59967	781.09607	-467.16028	-311.88760	767.32904	-359.88095	-769.52484	876.21436	-506.22729	-569.10742	872.67834	-501.43091	-663.84521	892.43103	-186.45941	-896.12695	477.93997	-465.18414	-504.31973	432.63901	-378.31052	-863.21173	155.28133	-287.71725				
502	5.010	-625.20984	1363.25146	-620.72742	-685.68744	1505.24280	-356.23099	-767.33478	1431.74036	-485.63904	-543.67041	1411.35742	-503.51022	-862.77759	1266.30334	-371.07031	-483.65460	1257.21130	-399.24722	-665.66858	1155.68774	-511.30298	-677.66968	1273.43127	-272.48962	-944.39972	950.98541	-334.05426	-392.23706	996.40729	-319.61908	-1006.25568	779.09003	-469.89398	-312.40863	767.31195	-371.56247	-769.78961	875.79773	-514.33087	-569.93079	871.30682	-508.68271	-666.04309	891.48822	-196.22815	-895.23889	480.16028	-477.63052	-505.57645	431.96198	-383.65527	-871.75226	141.35580	-327.17871				
503	5.020	-626.29749	1363.00134	-629.58954	-686.16901	1504.85681	-365.38995	-768.28131	1431.10193	-493.86456	-544.09406	1411.22205	-513.05310	-863.14398	1265.09680	-379.15375	-484.21857	1256.56946	-407.51923	-666.63794	1154.77100	-519.98315	-676.93988	1272.95874	-282.37872	-944.02429	949.86945	-339.55826	-391.28976	996.61621	-329.06168	-1008.83368	776.80023	-471.60199	-312.16992	766.77472	-381.77042	-770.69476	874.98187	-522.14783	-570.70605	870.39423	-516.01044	-664.55273	892.42627	-201.52242	-895.20074	482.03168	-489.86786	-507.09192	431.14633	-388.23019	-878.48969	134.14029	-353.75937				
504	5.030				-687.19171	1504.02747	-374.09177	-769.20959	1430.56018	-502.44968	-545.27747	1410.33875	-521.62335	-863.62976	1264.01489	-387.42477	-484.76941	1256.27014	-417.01666	-667.08923	1153.63257	-528.30383	-677.98346	1272.94348	-291.46628	-944.04901	949.72412	-345.46649	-391.25223	996.05762	-338.87164	-1010.39270	774.44366	-473.09134	-311.93027	766.95227	-392.76233	-771.39386	873.52380	-529.63013	-571.55389	869.25800	-523.68518	-667.35968	891.08759	-209.84401	-894.17969	482.16821	-500.55115	-509.36813	430.68848	-393.77731	-886.42157	126.63142	-382.30917				
505	5.040	-628.83936	1361.41956	-646.92841	-687.67310	1502.78406	-381.97659	-770.05176	1429.73730	-511.09442	-546.50470	1409.41248	-530.72894	-864.04462	1262.91956	-396.11295	-485.25964	1255.10840	-426.53329	-667.86383	1152.46033	-537.00824	-678.61438	1271.73462	-298.80972	-944.18427	948.39819	-351.58304	-391.53928	995.49622	-348.13556	-1012.21393	772.12140	-475.13455	-312.17056	765.52197	-403.91284	-771.72363	872.66797	-538.30548	-572.22064	867.97681	-531.74750	-667.88635	890.73987	-216.60359	-893.45288	482.71030	-512.08466	-511.39761	430.00574	-398.50891	-894.87012	119.73022	-413.00488				
506	5.050	-630.11884	1360.59277	-656.14075	-688.85004	1502.00781	-391.22321	-771.23407	1428.59216	-519.24377	-547.38446	1409.33289	-540.28870	-864.63593	1261.89087	-404.58887	-486.07162	1254.45679	-435.77136	-669.53467	1151.47937	-546.66748	-678.46014	1271.46814	-307.73831	-943.91949	947.46130	-358.19531	-391.44937	995.22150	-356.67603	-1013.18115	769.04126	-476.26630	-312.20389	765.25757	-415.21915	-772.20795	870.65155	-546.08643	-572.93622	866.74078	-539.52161	-671.04327	889.87360	-227.94316	-892.69202	482.39719	-522.65179	-513.91284	428.85901	-402.17792	-903.96906	110.86990	-445.34900				
